<?xml version="1.0" standalone="no"?>
<!DOCTYPE svg PUBLIC "-//W3C//DTD SVG 20010904//EN"
 "http://www.w3.org/TR/2001/REC-SVG-20010904/DTD/svg10.dtd">
<svg version="1.0" xmlns="http://www.w3.org/2000/svg"
 width="1312.000000pt" height="1400.000000pt" viewBox="0 0 1312.000000 1400.000000"
 preserveAspectRatio="xMidYMid meet">

<g transform="translate(0.000000,1400.000000) scale(0.100000,-0.100000)"
fill="#000000" stroke="none">
<path d="M9505 10224 c-33 -7 -148 -29 -255 -48 -107 -20 -218 -41 -247 -47
-28 -7 -59 -9 -68 -5 -12 4 -15 1 -13 -12 4 -21 17 -20 188 12 69 13 206 39
305 57 99 18 182 34 185 36 5 4 -22 23 -30 22 -3 -1 -32 -7 -65 -15z"/>
<path d="M7992 9938 c-103 -21 -115 -25 -108 -36 3 -5 45 -1 93 9 48 9 105 20
126 23 20 4 37 11 37 17 0 12 -42 9 -148 -13z"/>
<path d="M7665 9880 c-82 -15 -177 -33 -210 -40 -33 -8 -66 -13 -72 -11 -7 1
-13 -5 -13 -14 0 -8 6 -15 13 -15 7 0 118 20 247 45 129 25 236 45 237 45 2 0
3 5 3 10 0 14 -36 11 -205 -20z"/>
<path d="M2778 9685 c-32 -185 59 -338 232 -389 30 -9 74 -16 99 -15 25 0 42
2 36 4 -5 1 -35 10 -65 19 -30 9 -82 36 -115 59 -106 75 -161 171 -174 302 -7
60 -7 60 -13 20z"/>
<path d="M6542 9663 c-8 -3 -53 -11 -100 -18 l-87 -14 95 4 c52 2 104 6 115 8
11 3 22 6 25 6 6 2 -23 21 -30 20 -3 0 -11 -3 -18 -6z"/>
<path d="M6240 9613 c-25 -2 -52 -6 -60 -10 -8 -3 -24 -7 -35 -9 -67 -10 -289
-55 -293 -59 -3 -3 -12 1 -20 8 -13 10 -14 9 -3 -11 15 -28 0 -29 301 29 306
59 297 57 220 56 -36 0 -85 -2 -110 -4z"/>
<path d="M2772 8433 c-4 -10 -7 -54 -7 -98 0 -71 4 -89 33 -147 54 -111 158
-177 290 -186 39 -2 72 -2 72 1 0 3 -24 11 -52 17 -192 46 -318 194 -319 372
-1 60 -5 70 -17 41z"/>
<path d="M3926 8373 c-8 -36 5 -120 29 -176 19 -46 77 -112 126 -143 47 -29
132 -54 183 -53 40 0 39 1 -31 24 -40 14 -90 36 -111 49 -95 59 -166 168 -180
274 -8 53 -9 55 -16 25z"/>
<path d="M5260 7797 l0 -28 157 3 c131 3 158 6 161 18 2 13 -19 15 -149 12
-118 -3 -154 -1 -160 10 -6 9 -9 4 -9 -15z"/>
<path d="M4859 7796 c-5 -6 -9 -14 -9 -18 0 -4 90 -8 200 -8 110 0 200 3 200
8 0 4 -4 12 -8 17 -9 13 -370 13 -383 1z"/>
<path d="M6394 7797 c-42 -23 7 -27 375 -27 345 0 390 2 395 16 3 9 6 16 6 17
0 7 -764 0 -776 -6z"/>
<path d="M7979 7796 c-5 -6 -9 -14 -9 -18 0 -13 748 -10 755 3 4 6 5 12 3 14
-9 9 -740 10 -749 1z"/>
<path d="M2550 7759 c0 -5 9 -9 20 -9 11 0 20 2 20 4 0 2 -9 6 -20 9 -11 3
-20 1 -20 -4z"/>
<path d="M10001 7766 c11 -10 129 -16 129 -6 0 6 -27 10 -67 10 -36 0 -64 -2
-62 -4z"/>
<path d="M2785 7738 c-3 -7 -4 -157 -3 -333 l3 -320 25 4 c14 1 28 8 31 13 4
5 9 49 13 96 9 117 8 112 18 112 4 0 8 11 8 24 0 14 5 28 10 31 6 4 8 11 5 16
-4 5 6 9 22 10 24 0 25 1 8 8 -13 6 12 11 75 15 169 11 168 13 -15 16 -189 3
-181 7 50 26 50 4 81 10 70 12 -32 8 98 32 225 42 63 5 142 11 175 14 33 3
168 7 300 11 260 6 502 22 550 35 17 5 50 10 75 12 25 2 51 9 59 16 7 7 27 16
43 19 16 3 43 19 59 34 17 16 35 29 41 29 5 0 6 5 3 10 -3 6 0 10 7 10 13 1
58 34 58 43 0 2 -430 5 -955 6 -763 1 -956 -1 -960 -11z"/>
<path d="M2783 5295 c0 -22 2 -30 4 -17 2 12 2 30 0 40 -3 9 -5 -1 -4 -23z"/>
<path d="M2778 5040 c-12 -316 -10 -1201 3 -1305 21 -173 86 -320 175 -394 83
-69 210 -115 404 -147 97 -17 266 -18 2308 -21 l2202 -4 0 30 0 29 -847 2
c-467 1 -1050 3 -1298 4 l-450 2 -6 64 c-5 64 -6 64 -7 -25 -2 -62 -5 -85 -12
-75 -5 8 -10 26 -11 40 -1 18 -3 20 -6 7 -3 -13 -10 -16 -21 -12 -10 4 -124 6
-254 5 -163 -1 -238 2 -238 9 0 6 -18 11 -40 11 -23 0 -40 -5 -40 -11 0 -9
-53 -10 -197 -5 -109 4 -375 8 -591 9 -243 2 -396 6 -400 12 -4 6 -16 11 -27
11 -81 6 -225 34 -225 44 0 5 -17 14 -37 21 -37 13 -44 14 -70 17 -7 1 -13 7
-13 13 0 14 -51 59 -66 59 -6 0 -16 10 -22 23 -14 26 -35 60 -42 67 -16 16
-41 79 -52 130 -6 33 -16 60 -20 60 -9 0 -8 -47 -15 485 -8 625 -8 707 -2 735
5 22 2 26 -30 35 l-36 11 -5 134 -5 135 -7 -205z"/>
<path d="M6830 4350 c8 -5 20 -10 25 -10 6 0 3 5 -5 10 -8 5 -19 10 -25 10 -5
0 -3 -5 5 -10z"/>
<path d="M6745 4340 c-8 -13 5 -13 25 0 13 8 13 10 -2 10 -9 0 -20 -4 -23 -10z"/>
<path d="M7547 4333 c-3 -5 10 -8 28 -8 18 0 31 3 28 8 -2 4 -15 7 -28 7 -13
0 -26 -3 -28 -7z"/>
<path d="M7787 4333 c-3 -5 10 -8 28 -8 18 0 31 3 28 8 -2 4 -15 7 -28 7 -13
0 -26 -3 -28 -7z"/>
<path d="M8046 4331 c-3 -4 8 -8 23 -7 16 1 27 4 24 9 -6 10 -41 9 -47 -2z"/>
<path d="M8507 4333 c-3 -5 10 -8 28 -8 18 0 31 3 28 8 -2 4 -15 7 -28 7 -13
0 -26 -3 -28 -7z"/>
<path d="M8735 4330 c-4 -7 3 -8 22 -4 38 9 42 14 10 14 -14 0 -29 -5 -32 -10z"/>
<path d="M6689 4303 l-24 -28 28 24 c15 14 27 26 27 28 0 8 -8 1 -31 -24z"/>
<path d="M9130 4219 c0 -5 5 -7 10 -4 6 3 10 8 10 11 0 2 -4 4 -10 4 -5 0 -10
-5 -10 -11z"/>
<path d="M7732 4174 c10 -10 20 -16 22 -13 3 3 -5 11 -17 18 -21 13 -21 12 -5
-5z"/>
<path d="M7520 4160 c8 -5 22 -9 30 -9 10 0 8 3 -5 9 -27 12 -43 12 -25 0z"/>
<path d="M7610 4160 c-8 -5 -10 -10 -5 -10 6 0 17 5 25 10 8 5 11 10 5 10 -5
0 -17 -5 -25 -10z"/>
<path d="M7850 4160 c-9 -6 -10 -10 -3 -10 6 0 15 5 18 10 8 12 4 12 -15 0z"/>
<path d="M8710 4160 c8 -5 22 -9 30 -9 10 0 8 3 -5 9 -27 12 -43 12 -25 0z"/>
<path d="M8955 4160 c3 -5 8 -10 11 -10 2 0 4 5 4 10 0 6 -5 10 -11 10 -5 0
-7 -4 -4 -10z"/>
<path d="M7373 4153 c9 -2 23 -2 30 0 6 3 -1 5 -18 5 -16 0 -22 -2 -12 -5z"/>
<path d="M7778 4153 c7 -3 16 -2 19 1 4 3 -2 6 -13 5 -11 0 -14 -3 -6 -6z"/>
<path d="M7988 4153 c6 -2 18 -2 25 0 6 3 1 5 -13 5 -14 0 -19 -2 -12 -5z"/>
<path d="M8138 4153 c7 -3 16 -2 19 1 4 3 -2 6 -13 5 -11 0 -14 -3 -6 -6z"/>
<path d="M8498 4153 c7 -3 16 -2 19 1 4 3 -2 6 -13 5 -11 0 -14 -3 -6 -6z"/>
<path d="M9090 4140 c12 -23 25 -27 17 -6 -3 8 -1 17 6 20 7 2 2 5 -11 5 -20
1 -21 -2 -12 -19z"/>
<path d="M9260 4150 c19 -13 30 -13 30 0 0 6 -10 10 -22 10 -19 0 -20 -2 -8
-10z"/>
<path d="M9951 3356 c-28 -29 -131 -79 -166 -81 -5 -1 -19 -6 -30 -12 -11 -5
-33 -13 -50 -17 l-30 -6 25 16 c14 8 17 13 8 10 -9 -3 -34 -8 -55 -12 -30 -6
-34 -8 -18 -14 29 -11 12 -11 -902 -13 -734 -2 -833 0 -834 13 -1 23 -17 -20
-18 -48 l-1 -24 778 5 c642 4 795 7 882 20 199 30 343 84 421 157 24 22 39 40
34 40 -6 0 -25 -16 -44 -34z"/>
<path d="M0 440 l0 -440 6560 0 6560 0 0 440 0 440 -6560 0 -6560 0 0 -440z
m599 145 c16 -25 41 -69 56 -98 l27 -52 -42 -72 c-23 -40 -45 -75 -50 -78 -5
-3 -18 11 -31 31 -21 34 -21 37 -5 70 19 41 20 67 5 97 -19 38 -51 57 -97 57
-36 0 -49 -5 -73 -31 -60 -65 -20 -169 67 -174 32 -2 43 -8 62 -35 12 -18 22
-37 22 -41 0 -5 -42 -9 -94 -9 l-94 0 -51 88 c-28 48 -51 93 -51 101 0 7 23
53 51 102 l51 89 109 0 109 0 29 -45z m1828 -253 c-1 -53 -3 -7 -3 103 0 110
2 154 3 97 2 -57 2 -147 0 -200z m-1604 236 c6 -19 -3 -38 -18 -38 -18 0 -28
17 -21 35 7 18 33 20 39 3z m1357 -43 c0 -16 6 -25 15 -25 8 0 15 -7 15 -15 0
-8 -7 -15 -15 -15 -11 0 -15 -12 -15 -45 0 -31 5 -47 15 -51 24 -10 17 -34
-10 -34 -31 0 -45 26 -45 84 0 34 -4 46 -15 46 -8 0 -15 6 -15 14 0 8 7 16 15
20 8 3 15 15 15 26 0 13 7 20 20 20 15 0 20 -7 20 -25z m9580 -63 l0 -89 -40
-1 c-49 -2 -76 29 -65 77 8 39 29 55 60 47 23 -6 25 -3 25 24 0 16 5 30 10 30
6 0 10 -36 10 -88z m-8781 -53 c-5 -45 -6 -38 -6 41 0 65 2 82 6 54 4 -22 4
-65 0 -95z m701 43 l0 -89 -39 -1 c-31 -1 -44 3 -55 20 -34 48 -5 113 45 106
26 -4 29 -2 29 24 0 15 5 28 10 28 6 0 10 -36 10 -88z m724 7 c17 17 34 31 40
31 5 0 -3 -13 -18 -29 l-27 -28 27 -32 c14 -18 24 -35 20 -38 -6 -6 -45 36
-46 50 0 21 -26 -3 -31 -29 -4 -16 -6 14 -6 66 0 80 1 86 6 37 l6 -59 29 31z
m7216 -4 c0 -50 -4 -85 -10 -85 -6 0 -10 35 -10 85 0 50 4 85 10 85 6 0 10
-35 10 -85z m363 78 c-38 -4 -43 -7 -43 -29 0 -19 5 -24 24 -24 47 0 70 -46
46 -91 -18 -32 -90 -20 -90 15 0 5 9 1 19 -8 28 -25 55 -17 59 17 5 40 -14 59
-50 52 -30 -7 -35 4 -22 53 6 19 12 22 53 20 l46 -1 -42 -4z m137 -78 c0 -50
-4 -85 -10 -85 -6 0 -10 31 -10 74 0 69 -1 74 -20 69 -11 -3 -20 -2 -20 1 0 6
37 24 53 25 4 1 7 -37 7 -84z m161 68 c8 -9 14 -39 14 -68 0 -61 -16 -85 -56
-85 -35 0 -49 24 -49 85 0 25 5 55 10 66 13 24 62 25 81 2z m109 -1 c-43 -21
-54 -52 -15 -44 31 5 65 -21 65 -51 0 -28 -28 -57 -56 -57 -35 0 -54 26 -54
74 0 54 30 96 68 96 26 0 26 -1 -8 -18z m168 6 c15 -15 16 -55 1 -63 -7 -5 -4
-13 7 -26 15 -17 16 -20 0 -44 -26 -40 -96 -30 -96 14 0 11 5 9 16 -7 18 -26
46 -29 65 -6 17 20 2 46 -32 55 l-24 6 27 7 c31 9 43 33 27 52 -17 21 -45 17
-62 -8 -12 -17 -16 -19 -16 -7 -1 22 20 39 49 39 14 0 31 -5 38 -12z m140 0
c22 -22 13 -55 -28 -101 l-41 -46 48 -4 c48 -3 48 -3 -9 -5 -32 -1 -58 0 -58
2 0 3 18 26 41 52 29 33 39 54 37 73 -4 35 -40 41 -62 9 -11 -15 -16 -18 -16
-7 0 23 21 39 50 39 14 0 31 -5 38 -12z m143 -4 c17 -21 18 -116 0 -137 -19
-23 -68 -22 -81 2 -5 11 -10 41 -10 66 0 25 5 55 10 66 13 24 62 26 81 3z
m-10161 -62 c14 -34 29 -64 32 -67 3 -3 18 26 33 64 39 98 55 94 55 -14 0 -50
-4 -85 -10 -85 -6 0 -10 29 -10 68 l-1 67 -28 -64 c-15 -36 -32 -66 -37 -68
-6 -2 -24 29 -40 69 l-29 73 -6 -75 -5 -75 -2 88 c-2 106 9 110 48 19z m1183
61 l-33 -4 -2 -82 -2 -82 -3 82 -4 82 -32 4 c-18 2 0 4 38 4 39 0 55 -2 38 -4z
m-2866 -34 c7 -6 13 -17 13 -24 0 -19 -27 -26 -40 -9 -27 32 -70 9 -70 -38 0
-39 33 -55 67 -33 34 23 55 5 28 -25 -28 -31 -88 -27 -114 6 -50 64 -3 153 73
139 16 -3 35 -10 43 -16z m174 -8 c35 -35 38 -77 8 -115 -21 -26 -65 -35 -104
-20 -19 8 -45 55 -45 84 0 31 53 80 85 80 16 0 38 -12 56 -29z m189 9 c16 -16
20 -33 20 -85 0 -58 -2 -65 -20 -65 -16 0 -19 8 -22 63 -3 59 -4 62 -28 62
-24 0 -25 -3 -28 -62 -3 -55 -6 -63 -22 -63 -18 0 -20 7 -20 81 0 81 0 81 24
75 14 -3 28 -2 31 4 10 16 44 11 65 -10z m161 0 c20 -16 22 -21 9 -29 -10 -7
-20 -5 -31 5 -17 15 -52 9 -46 -9 2 -6 16 -14 31 -18 55 -15 72 -51 40 -83
-29 -29 -114 -10 -114 26 0 11 38 10 45 -2 9 -15 45 -12 45 4 0 8 -12 17 -27
21 -38 9 -53 23 -53 51 0 24 33 54 61 54 9 0 27 -9 40 -20z m176 -5 c23 -21
26 -26 13 -34 -10 -7 -20 -5 -31 5 -44 40 -98 -10 -65 -61 19 -29 38 -32 61
-9 16 16 45 13 45 -5 0 -17 -43 -41 -73 -41 -40 0 -63 15 -75 48 -14 40 -4 79
26 102 33 27 65 25 99 -5z m171 9 c33 -23 45 -60 31 -101 -13 -39 -34 -53 -83
-53 -42 0 -76 37 -76 84 0 68 74 108 128 70z m-1358 -14 c11 -11 20 -29 20
-39 0 -24 -29 -57 -56 -65 -29 -9 -74 28 -74 61 0 57 69 84 110 43z m310 -60
c0 -73 -2 -80 -20 -80 -18 0 -20 7 -20 80 0 73 2 80 20 80 18 0 20 -7 20 -80z
m1160 28 c0 -64 10 -83 39 -73 18 5 21 14 21 66 0 52 2 59 20 59 18 0 20 -7
20 -78 l0 -79 -52 -1 c-74 -1 -88 14 -88 95 0 56 2 63 20 63 17 0 20 -7 20
-52z m9840 48 c0 -3 -4 -8 -10 -11 -5 -3 -10 -1 -10 4 0 6 5 11 10 11 6 0 10
-2 10 -4z m-8970 -60 c0 -46 3 -56 20 -61 32 -10 49 12 53 68 3 49 3 49 5 -14
l2 -65 -40 -2 c-35 -3 -41 0 -50 23 -13 34 -13 105 0 105 6 0 10 -24 10 -54z
m206 43 c11 -18 14 -119 4 -119 -6 0 -10 22 -10 49 0 53 -16 76 -45 64 -13 -4
-16 -3 -11 5 9 15 53 16 62 1z m122 -1 c7 -7 12 -35 12 -63 l0 -51 -41 1 c-53
0 -72 24 -45 54 11 12 32 21 48 21 31 0 36 11 13 30 -12 10 -21 10 -40 2 -14
-7 -25 -8 -25 -3 0 21 60 27 78 9z m136 3 c4 -6 18 -5 35 2 44 16 61 -3 61
-69 0 -69 -16 -71 -19 -1 -3 61 -11 73 -40 58 -17 -10 -21 -21 -21 -61 0 -28
-4 -50 -10 -50 -5 0 -10 24 -10 54 0 56 -12 72 -45 60 -16 -6 -22 -25 -28 -84
-2 -19 -5 -6 -5 30 l-2 65 39 3 c22 1 42 -2 45 -7z m214 -3 c7 -7 12 -35 12
-63 l0 -51 -41 1 c-56 0 -75 27 -40 56 13 10 34 19 47 19 26 0 30 10 12 28
-16 16 -33 15 -52 -4 -14 -13 -16 -13 -16 -1 0 26 56 37 78 15z m456 -4 c10
-10 16 -33 16 -64 l0 -48 -47 2 c-43 1 -48 4 -51 25 -4 29 20 51 55 51 13 0
23 6 23 14 0 22 -31 28 -56 11 -25 -16 -33 -8 -12 13 17 17 54 15 72 -4z m66
-39 c0 -60 13 -75 49 -56 15 9 21 23 24 64 3 50 3 50 5 -14 l2 -65 -39 -2
c-31 -2 -42 2 -50 17 -14 25 -14 111 -1 111 6 0 10 -25 10 -55z m203 38 c22
-20 22 -76 0 -98 -10 -11 -27 -15 -45 -13 -25 4 -28 2 -28 -24 0 -15 -4 -28
-10 -28 -6 0 -10 36 -10 88 l0 88 38 1 c21 1 44 -5 55 -14z m64 -80 c-2 -21
-4 -6 -4 32 0 39 2 55 4 38 2 -18 2 -50 0 -70z m7498 -13 c3 -5 1 -10 -4 -10
-6 0 -11 5 -11 10 0 6 2 10 4 10 3 0 8 -4 11 -10z"/>
<path d="M11676 465 c-18 -49 5 -92 44 -80 18 6 21 13 18 48 -3 37 -6 42 -29
45 -17 2 -29 -3 -33 -13z"/>
<path d="M3608 469 c-22 -12 -24 -71 -3 -89 8 -6 23 -9 35 -5 16 5 20 15 20
50 0 30 -5 45 -16 49 -19 7 -15 8 -36 -5z"/>
<path d="M12210 504 c-29 -75 14 -156 58 -112 7 7 12 35 12 63 0 28 -5 56 -12
63 -20 20 -48 14 -58 -14z"/>
<path d="M12356 455 c-17 -18 -9 -53 17 -69 33 -21 65 42 35 72 -16 16 -33 15
-52 -3z"/>
<path d="M12770 504 c-29 -75 14 -156 58 -112 15 15 16 92 2 119 -15 28 -49
24 -60 -7z"/>
<path d="M1081 451 c-16 -29 -14 -46 8 -65 26 -23 59 -13 67 21 9 34 -6 57
-39 61 -18 2 -29 -3 -36 -17z"/>
<path d="M1792 458 c-19 -19 -15 -66 7 -78 29 -15 39 -13 56 14 32 48 -23 104
-63 64z"/>
<path d="M3126 417 c-12 -9 -17 -20 -13 -31 8 -20 31 -21 52 0 31 31 -3 57
-39 31z"/>
<path d="M3483 423 c-26 -5 -32 -40 -9 -49 21 -8 58 15 54 33 -3 19 -13 22
-45 16z"/>
<path d="M3940 421 c-29 -8 -38 -36 -15 -45 23 -9 55 11 55 34 0 21 -2 22 -40
11z"/>
<path d="M4198 469 c-12 -6 -18 -22 -18 -43 0 -41 24 -65 48 -49 21 12 28 69
11 89 -13 16 -18 17 -41 3z"/>
</g>
</svg>
