<?xml version="1.0" standalone="no"?>
<!DOCTYPE svg PUBLIC "-//W3C//DTD SVG 20010904//EN"
 "http://www.w3.org/TR/2001/REC-SVG-20010904/DTD/svg10.dtd">
<svg version="1.0" xmlns="http://www.w3.org/2000/svg"
 width="1312.000000pt" height="1400.000000pt" viewBox="0 0 1312.000000 1400.000000"
 preserveAspectRatio="xMidYMid meet">

<g transform="translate(0.000000,1400.000000) scale(0.100000,-0.100000)"
fill="#000000" stroke="none">
<path d="M6445 12413 c-519 -25 -1061 -124 -1530 -278 -280 -93 -532 -208
-830 -380 -186 -107 -469 -302 -650 -448 -169 -136 -483 -433 -565 -536 -19
-24 -42 -51 -51 -60 -8 -9 -62 -74 -120 -144 -131 -162 -264 -354 -406 -587
-86 -142 -265 -516 -334 -696 -39 -104 -72 -193 -73 -199 -1 -5 -8 -20 -14
-33 -7 -12 -44 -140 -83 -285 -53 -200 -79 -322 -110 -517 -46 -293 -57 -436
-69 -860 -5 -213 -12 -327 -23 -378 -19 -88 -11 -212 29 -452 106 -630 356
-1258 721 -1813 420 -638 1074 -1248 1745 -1626 274 -155 789 -364 1108 -450
41 -11 100 -27 130 -35 455 -127 1099 -190 1590 -156 711 50 1350 227 1995
555 501 254 795 472 1205 892 254 260 415 450 599 708 313 439 562 952 687
1418 25 94 54 199 64 232 39 125 82 380 106 625 22 226 22 679 0 905 -69 700
-261 1377 -560 1970 -194 383 -636 944 -1039 1317 -541 500 -1077 828 -1730
1058 -83 29 -301 95 -347 104 -14 3 -61 15 -105 26 -72 18 -179 39 -360 70
-260 44 -684 68 -980 53z m1560 -2601 c22 -15 50 -47 63 -72 l22 -45 -2 -1570
-3 -1570 -33 -63 c-20 -39 -62 -92 -107 -137 -41 -41 -75 -72 -75 -70 0 2 -39
-15 -87 -38 l-88 -42 -178 -3 c-147 -3 -187 0 -230 14 -70 23 -175 77 -212
109 -88 77 -144 140 -168 189 -24 49 -27 66 -27 160 0 81 5 117 19 155 11 27
18 51 15 54 -3 3 30 41 73 84 88 89 160 131 278 165 142 40 366 28 498 -27 16
-7 17 5 17 159 0 126 -3 166 -12 166 -9 0 -10 2 -2 8 15 9 25 1166 11 1199
-13 29 -58 46 -99 38 -35 -7 -61 -15 -553 -173 -170 -55 -377 -121 -460 -147
-360 -112 -483 -151 -685 -217 -237 -78 -255 -85 -286 -120 -51 -56 -49 0 -54
-1143 l-5 -1070 -32 -65 c-45 -93 -144 -190 -238 -235 -40 -19 -79 -36 -87
-37 -7 -2 -16 -7 -20 -13 -4 -6 -86 -10 -210 -10 l-203 0 -85 41 c-112 54
-232 161 -302 270 -25 38 -26 47 -25 160 2 106 5 125 28 175 15 31 56 87 93
126 74 79 169 132 290 165 125 33 326 21 439 -27 20 -8 38 -15 40 -15 3 0 7
557 9 1238 l5 1237 31 68 c33 72 124 177 177 205 30 15 139 52 695 232 157 50
402 130 545 176 268 87 303 99 785 254 157 50 290 93 295 95 26 11 103 -7 140
-33z m-978 -6154 c27 -30 163 -290 163 -311 0 -10 -30 -71 -67 -137 -47 -86
-72 -120 -85 -120 -18 0 -88 96 -88 120 0 6 10 25 23 41 18 25 22 44 22 99 0
61 -3 72 -31 107 -87 109 -223 109 -298 0 -31 -45 -36 -60 -36 -109 0 -48 5
-62 33 -99 53 -70 79 -84 159 -86 39 -1 71 -3 73 -5 19 -25 55 -100 55 -116 0
-22 -3 -22 -163 -22 -116 0 -168 4 -178 13 -16 13 -95 147 -149 255 l-32 64
42 81 c23 45 48 89 54 97 7 8 23 37 37 63 46 91 34 87 253 87 187 0 193 -1
213 -22z m388 -18 c0 -29 -34 -40 -54 -17 -18 23 -2 49 28 45 20 -2 26 -8 26
-28z m1835 -40 c0 -25 4 -30 25 -30 34 0 37 -47 3 -52 -20 -3 -23 -10 -26 -56
-3 -48 -1 -53 23 -62 34 -13 30 -44 -7 -48 -46 -5 -68 27 -68 103 0 58 -2 65
-20 65 -15 0 -20 7 -20 25 0 18 5 25 19 25 13 0 21 9 26 30 5 21 13 30 26 30
14 0 19 -7 19 -30z m-884 -51 c36 -30 -3 -53 -45 -27 -10 6 -26 8 -35 5 -30
-12 -16 -32 31 -47 32 -10 53 -24 63 -42 13 -25 13 -29 -6 -55 -16 -22 -31
-29 -63 -31 -46 -4 -91 18 -91 44 0 22 28 29 49 10 25 -23 61 -21 61 4 0 14
-11 22 -40 30 -47 13 -70 34 -70 64 0 23 32 59 60 68 18 6 67 -7 86 -23z
m-956 -89 l0 -110 -25 0 -25 0 0 110 0 110 25 0 25 0 0 -110z m231 89 c16 -11
29 -26 29 -34 0 -21 -31 -27 -51 -9 -22 20 -63 21 -84 4 -11 -9 -15 -26 -13
-54 2 -32 9 -44 30 -55 25 -14 29 -14 57 7 47 34 85 7 42 -32 -29 -26 -72 -35
-111 -22 -39 12 -80 66 -80 103 0 32 25 78 52 97 32 23 94 20 129 -5z m242 0
c39 -30 53 -85 34 -131 -49 -117 -217 -81 -217 47 0 29 8 45 34 71 29 29 41
34 79 34 30 0 53 -7 70 -21z m143 10 c4 -8 9 -8 17 0 6 6 28 11 48 11 60 0 79
-33 79 -136 0 -83 0 -84 -25 -84 -24 0 -25 2 -25 73 0 88 -7 99 -51 95 l-34
-3 -3 -82 c-3 -81 -3 -83 -27 -83 l-25 0 0 110 c0 102 1 110 19 110 11 0 23
-5 27 -11z m565 -2 c9 -7 21 -22 27 -34 18 -32 -19 -41 -55 -14 -42 34 -93 7
-93 -49 0 -56 62 -88 98 -52 13 13 28 19 41 15 28 -7 26 -19 -5 -48 -26 -24
-45 -29 -89 -26 -96 8 -129 140 -51 203 25 21 103 24 127 5z m238 -1 c49 -26
66 -98 36 -157 -30 -58 -127 -68 -176 -20 -24 25 -29 38 -29 79 0 43 5 55 31
81 35 35 89 42 138 17z m151 -66 c0 -68 3 -81 19 -90 50 -26 71 2 71 96 0 72
1 74 25 74 l25 0 0 -110 c0 -99 -2 -110 -18 -110 -10 0 -23 5 -29 11 -8 8 -13
8 -17 0 -12 -19 -80 -13 -104 9 -19 18 -22 31 -22 110 0 89 0 90 25 90 25 0
25 -1 25 -80z m-2090 -57 c79 -72 42 -189 -62 -200 -49 -4 -82 10 -110 48 -23
31 -27 88 -9 122 33 61 129 77 181 30z m840 -204 c0 -4 -12 -9 -27 -11 -30 -3
-44 -28 -16 -28 17 -1 17 -1 1 -14 -13 -10 -18 -27 -18 -65 0 -28 -4 -51 -10
-51 -5 0 -10 24 -10 53 0 29 -5 58 -12 65 -8 8 -8 12 -1 12 6 0 14 11 17 24 3
14 14 26 24 28 22 5 52 -2 52 -13z m550 -18 c0 -25 3 -28 27 -23 18 3 30 -1
40 -13 17 -24 18 -115 0 -115 -8 0 -12 13 -10 38 3 55 -5 74 -30 70 -19 -3
-22 -10 -25 -55 -2 -29 -7 -53 -12 -53 -9 0 -17 104 -12 158 4 39 22 33 22 -7z
m-832 13 c22 -15 30 -44 12 -44 -5 0 -10 4 -10 10 0 14 -37 31 -54 24 -30 -11
-17 -39 27 -59 30 -14 43 -27 45 -44 4 -28 -20 -51 -54 -51 -25 0 -72 35 -62
46 5 4 17 -1 27 -10 24 -21 65 -17 69 7 3 12 -9 22 -41 36 -62 27 -73 71 -23
91 30 13 39 12 64 -6z m642 2 c0 -6 -20 -42 -45 -79 l-45 -67 50 0 c27 0 50
-4 50 -10 0 -6 -28 -10 -65 -10 -40 0 -65 4 -65 11 0 6 20 39 45 73 25 35 45
66 45 70 0 3 -21 6 -46 6 -29 0 -43 4 -39 10 9 14 115 10 115 -4z m320 -6 c0
-5 -4 -10 -10 -10 -5 0 -10 5 -10 10 0 6 5 10 10 10 6 0 10 -4 10 -10z m-809
-46 c19 -23 15 -85 -7 -101 -60 -44 -128 42 -77 99 20 22 66 24 84 2z m139
-49 c0 -37 -4 -65 -10 -65 -6 0 -10 28 -10 65 0 37 4 65 10 65 6 0 10 -28 10
-65z m126 57 c7 -4 14 -32 15 -63 l4 -56 -40 0 c-45 -1 -65 11 -65 38 0 21 28
39 59 39 12 0 21 5 21 10 0 17 -31 24 -50 12 -22 -13 -34 -4 -19 15 12 14 57
17 75 5z m340 0 c6 -4 13 -32 16 -63 l4 -56 -40 0 c-46 -1 -66 11 -66 38 0 21
28 39 59 39 12 0 21 5 21 10 0 17 -31 24 -51 11 -15 -9 -19 -8 -19 3 0 22 51
35 76 18z m204 -57 c0 -37 -4 -65 -10 -65 -6 0 -10 28 -10 65 0 37 4 65 10 65
6 0 10 -28 10 -65z m100 55 c0 -4 -9 -10 -20 -13 -17 -4 -20 -14 -20 -56 0
-28 -4 -51 -10 -51 -6 0 -10 28 -10 63 l0 64 30 1 c17 0 30 -3 30 -8z m100 -9
c5 -11 10 -40 10 -64 0 -42 -2 -45 -27 -45 -51 1 -71 8 -76 28 -6 23 12 40 53
49 23 5 27 9 20 21 -7 12 -15 13 -40 3 -31 -12 -39 -6 -18 15 19 19 66 15 78
-7z"/>
<path d="M7775 3506 c-32 -32 -32 -60 0 -91 28 -29 42 -31 73 -9 25 17 31 84
10 102 -31 24 -57 23 -83 -2z"/>
<path d="M8720 3501 c-16 -31 -12 -69 10 -91 54 -54 127 20 90 91 -8 14 -21
19 -50 19 -29 0 -42 -5 -50 -19z"/>
<path d="M7532 3158 c-27 -27 -8 -78 30 -78 19 0 32 35 26 67 -4 22 -38 29
-56 11z"/>
<path d="M7804 3109 c-3 -6 -1 -16 5 -22 13 -13 42 0 49 21 5 15 -44 16 -54 1z"/>
<path d="M8144 3109 c-10 -17 12 -32 35 -24 29 9 27 35 -3 35 -14 0 -28 -5
-32 -11z"/>
<path d="M8540 3099 c0 -15 5 -20 22 -17 34 5 37 38 4 38 -20 0 -26 -5 -26
-21z"/>
<path d="M0 440 l0 -440 6560 0 6560 0 0 440 0 440 -6560 0 -6560 0 0 -440z
m599 145 c16 -25 41 -69 56 -98 l27 -52 -42 -72 c-23 -40 -45 -75 -50 -78 -5
-3 -18 11 -31 31 -21 34 -21 37 -5 70 19 41 20 67 5 97 -19 38 -51 57 -97 57
-36 0 -49 -5 -73 -31 -60 -65 -20 -169 67 -174 32 -2 43 -8 62 -35 12 -18 22
-37 22 -41 0 -5 -42 -9 -94 -9 l-94 0 -51 88 c-28 48 -51 93 -51 101 0 7 23
53 51 102 l51 89 109 0 109 0 29 -45z m1828 -253 c-1 -53 -3 -7 -3 103 0 110
2 154 3 97 2 -57 2 -147 0 -200z m-1604 236 c6 -19 -3 -38 -18 -38 -18 0 -28
17 -21 35 7 18 33 20 39 3z m1357 -43 c0 -16 6 -25 15 -25 8 0 15 -7 15 -15 0
-8 -7 -15 -15 -15 -11 0 -15 -12 -15 -45 0 -31 5 -47 15 -51 24 -10 17 -34
-10 -34 -31 0 -45 26 -45 84 0 34 -4 46 -15 46 -8 0 -15 6 -15 14 0 8 7 16 15
20 8 3 15 15 15 26 0 13 7 20 20 20 15 0 20 -7 20 -25z m9580 -63 l0 -89 -40
-1 c-49 -2 -76 29 -65 77 8 39 29 55 60 47 23 -6 25 -3 25 24 0 16 5 30 10 30
6 0 10 -36 10 -88z m-8785 69 c-34 -7 -48 -40 -18 -42 16 -1 17 -2 1 -6 -15
-4 -18 -16 -18 -64 0 -33 -4 -59 -10 -59 -6 0 -10 27 -10 60 0 41 -4 60 -12
61 -10 0 -10 2 0 6 6 2 12 10 12 17 0 21 23 36 55 35 l30 -1 -30 -7z m590 -44
c31 5 36 2 45 -21 13 -35 13 -106 0 -106 -5 0 -10 24 -10 54 0 56 -12 72 -45
60 -16 -6 -22 -25 -28 -84 -2 -19 -4 8 -4 60 0 52 2 81 4 63 4 -30 6 -31 38
-26z m8055 -32 c0 -50 -4 -85 -10 -85 -6 0 -10 35 -10 85 0 50 4 85 10 85 6 0
10 -35 10 -85z m363 78 c-38 -4 -43 -7 -43 -29 0 -19 5 -24 24 -24 47 0 70
-46 46 -91 -18 -32 -90 -20 -90 15 0 5 9 1 19 -8 28 -25 55 -17 59 17 5 40
-14 59 -50 52 -30 -7 -35 4 -22 53 6 19 12 22 53 20 l46 -1 -42 -4z m155 -5
c21 -21 13 -53 -23 -95 -19 -23 -35 -44 -35 -47 0 -2 19 -7 43 -9 36 -3 34 -4
-15 -5 -32 -1 -58 0 -58 2 0 3 18 26 41 52 29 33 39 54 37 73 -4 35 -40 41
-62 9 -11 -15 -16 -18 -16 -7 0 23 21 39 50 39 14 0 31 -5 38 -12z m140 0 c15
-15 16 -55 1 -63 -7 -5 -4 -14 7 -26 14 -16 15 -24 6 -44 -9 -19 -19 -25 -45
-25 -18 0 -38 5 -45 12 -14 14 -16 54 -3 62 5 4 5 18 -2 35 -8 23 -8 33 2 45
16 19 62 21 79 4z m142 -48 c0 -50 3 -60 18 -61 16 -1 16 -2 0 -6 -10 -2 -18
-13 -18 -24 0 -10 -4 -19 -10 -19 -5 0 -10 9 -10 19 0 16 -8 20 -40 23 l-40 3
40 63 c22 34 44 62 50 62 6 0 10 -26 10 -60z m138 48 c22 -22 13 -55 -28 -101
l-41 -46 48 -4 c48 -3 48 -3 -10 -5 -52 -2 -57 0 -48 16 5 9 19 26 31 37 12
11 28 31 35 45 26 51 -27 84 -59 38 -11 -16 -16 -18 -16 -7 0 23 21 39 50 39
14 0 31 -5 38 -12z m146 -25 c-9 -21 -25 -59 -36 -85 -12 -27 -24 -48 -29 -48
-10 0 -2 21 35 100 l26 55 -53 6 -52 6 63 1 62 2 -16 -37z m136 -23 c0 -41 4
-60 13 -61 10 0 10 -2 0 -6 -7 -2 -13 -13 -13 -24 0 -10 -4 -19 -10 -19 -5 0
-10 9 -10 19 0 16 -8 20 -40 23 l-40 3 40 63 c22 34 44 62 50 62 6 0 10 -26
10 -60z m-10112 38 c7 -7 12 -19 12 -27 0 -11 -5 -9 -20 7 -21 23 -37 26 -64
16 -32 -12 -17 -40 34 -61 40 -17 50 -26 50 -45 0 -32 -18 -48 -53 -48 -37 0
-67 17 -67 37 0 14 4 13 20 -5 23 -25 48 -28 74 -9 26 19 10 45 -35 57 -32 9
-59 33 -59 54 0 30 83 49 108 24z m622 7 c0 -3 -22 -39 -50 -80 l-50 -74 58
-4 57 -3 -67 -2 c-38 -1 -68 1 -68 6 1 4 23 39 50 77 l50 70 -53 6 -52 6 63 1
c34 1 62 0 62 -3z m-2353 -36 c7 -6 13 -17 13 -24 0 -19 -27 -26 -40 -9 -27
32 -70 9 -70 -38 0 -39 33 -55 67 -33 34 23 55 5 28 -25 -28 -31 -88 -27 -114
6 -50 64 -3 153 73 139 16 -3 35 -10 43 -16z m174 -8 c35 -35 38 -77 8 -115
-21 -26 -65 -35 -104 -20 -19 8 -45 55 -45 84 0 31 53 80 85 80 16 0 38 -12
56 -29z m189 9 c16 -16 20 -33 20 -85 0 -58 -2 -65 -20 -65 -16 0 -19 8 -22
63 -3 59 -4 62 -28 62 -24 0 -25 -3 -28 -62 -3 -55 -6 -63 -22 -63 -18 0 -20
7 -20 81 0 81 0 81 24 75 14 -3 28 -2 31 4 10 16 44 11 65 -10z m161 0 c20
-16 22 -21 9 -29 -10 -7 -20 -5 -31 5 -17 15 -52 9 -46 -9 2 -6 16 -14 31 -18
55 -15 72 -51 40 -83 -29 -29 -114 -10 -114 26 0 11 38 10 45 -2 9 -15 45 -12
45 4 0 8 -12 17 -27 21 -38 9 -53 23 -53 51 0 24 33 54 61 54 9 0 27 -9 40
-20z m176 -5 c23 -21 26 -26 13 -34 -10 -7 -20 -5 -31 5 -44 40 -98 -10 -65
-61 19 -29 38 -32 61 -9 16 16 45 13 45 -5 0 -17 -43 -41 -73 -41 -40 0 -63
15 -75 48 -14 40 -4 79 26 102 33 27 65 25 99 -5z m171 9 c33 -23 45 -60 31
-101 -13 -39 -34 -53 -83 -53 -42 0 -76 37 -76 84 0 68 74 108 128 70z m-1358
-14 c11 -11 20 -29 20 -39 0 -24 -29 -57 -56 -65 -29 -9 -74 28 -74 61 0 57
69 84 110 43z m310 -60 c0 -73 -2 -80 -20 -80 -18 0 -20 7 -20 80 0 73 2 80
20 80 18 0 20 -7 20 -80z m1160 28 c0 -64 10 -83 39 -73 18 5 21 14 21 66 0
52 2 59 20 59 18 0 20 -7 20 -78 l0 -79 -52 -1 c-74 -1 -88 14 -88 95 0 56 2
63 20 63 17 0 20 -7 20 -52z m9840 48 c0 -3 -4 -8 -10 -11 -5 -3 -10 -1 -10 4
0 6 5 11 10 11 6 0 10 -2 10 -4z m-8958 -23 c22 -20 24 -76 2 -97 -36 -37 -94
-8 -94 46 0 58 52 87 92 51z m148 -48 c0 -37 -4 -65 -10 -65 -6 0 -10 28 -10
65 0 37 4 65 10 65 6 0 10 -28 10 -65z m118 53 c7 -7 12 -35 12 -63 l0 -52
-45 -1 c-41 -2 -45 0 -51 24 -8 31 15 54 53 54 26 0 31 25 7 34 -8 3 -24 1
-34 -4 -28 -15 -38 -11 -16 5 24 18 58 19 74 3z m340 0 c7 -7 12 -35 12 -62
l0 -51 -39 -3 c-75 -5 -83 61 -9 75 39 8 40 9 24 26 -21 21 -30 21 -50 2 -8
-9 -17 -11 -21 -6 -14 24 61 41 83 19z m202 -53 c0 -37 -4 -65 -10 -65 -6 0
-10 28 -10 65 0 37 4 65 10 65 6 0 10 -28 10 -65z m90 55 c0 -4 -9 -10 -20
-13 -17 -4 -20 -14 -20 -56 0 -28 -4 -51 -10 -51 -6 0 -10 28 -10 63 l0 64 30
1 c17 0 30 -3 30 -8z m94 -6 c10 -10 16 -33 16 -63 l0 -48 -45 -1 c-35 -2 -46
2 -55 18 -13 25 18 60 55 60 28 0 32 12 10 30 -12 10 -20 9 -40 -4 -26 -17
-34 -9 -13 12 17 17 54 15 72 -4z m7961 -94 c3 -5 1 -10 -4 -10 -6 0 -11 5
-11 10 0 6 2 10 4 10 3 0 8 -4 11 -10z"/>
<path d="M11676 465 c-18 -49 5 -92 44 -80 18 6 21 13 18 48 -3 37 -6 42 -29
45 -17 2 -29 -3 -33 -13z"/>
<path d="M12217 524 c-13 -14 -7 -43 12 -53 27 -15 60 11 45 36 -12 19 -45 29
-57 17z"/>
<path d="M12212 438 c-28 -28 1 -64 43 -54 18 5 25 13 25 30 0 33 -43 49 -68
24z"/>
<path d="M12368 465 l-28 -45 30 0 c29 0 30 2 30 45 0 25 -1 45 -3 45 -1 0
-14 -20 -29 -45z"/>
<path d="M12788 465 l-28 -45 30 0 c29 0 30 2 30 45 0 25 -1 45 -3 45 -1 0
-14 -20 -29 -45z"/>
<path d="M1081 451 c-16 -29 -14 -46 8 -65 26 -23 59 -13 67 21 9 34 -6 57
-39 61 -18 2 -29 -3 -36 -17z"/>
<path d="M1792 458 c-19 -19 -15 -66 7 -78 29 -15 39 -13 56 14 32 48 -23 104
-63 64z"/>
<path d="M2797 462 c-39 -43 3 -114 50 -84 24 15 26 59 4 81 -26 26 -33 26
-54 3z"/>
<path d="M3090 421 c-30 -4 -43 -21 -28 -38 14 -17 33 -16 48 2 18 22 8 40
-20 36z"/>
<path d="M3427 422 c-22 -3 -28 -8 -25 -25 2 -12 10 -23 18 -24 23 -4 42 12
38 33 -2 14 -10 18 -31 16z"/>
<path d="M3810 421 c-29 -8 -38 -36 -15 -45 23 -9 55 11 55 34 0 21 -2 22 -40
11z"/>
</g>
</svg>
